<svg xmlns="http://www.w3.org/2000/svg" xmlns:xlink="http://www.w3.org/1999/xlink" viewBox="0 0 385.84 62.65"><defs><style>.cls-1{fill:url(#linear-gradient);}.cls-2{fill:url(#linear-gradient-2);}.cls-3{fill:#455dff;}.cls-4{fill:#00217c;}</style><linearGradient id="linear-gradient" x1="46.92" y1="2.7" x2="97.66" y2="53.43" gradientUnits="userSpaceOnUse"><stop offset="0" stop-color="#d4ddff"/><stop offset="0.16" stop-color="#d0d9ff"/><stop offset="0.33" stop-color="#c3ceff"/><stop offset="0.5" stop-color="#afbcff"/><stop offset="0.67" stop-color="#92a2ff"/><stop offset="0.85" stop-color="#6d80ff"/><stop offset="1" stop-color="#455dff"/></linearGradient><linearGradient id="linear-gradient-2" x1="24.74" y1="24.74" x2="53.43" y2="53.43" gradientUnits="userSpaceOnUse"><stop offset="0" stop-color="#d4ddff"/><stop offset="0.14" stop-color="#ced8ff"/><stop offset="0.31" stop-color="#bec9ff"/><stop offset="0.52" stop-color="#a3b1ff"/><stop offset="0.73" stop-color="#7d8fff"/><stop offset="0.96" stop-color="#4d64ff"/><stop offset="1" stop-color="#455dff"/></linearGradient></defs><title>Asset 5</title><g id="Layer_2" data-name="Layer 2"><g id="Layer_1-2" data-name="Layer 1"><path class="cls-1" d="M60,2.7a9.21,9.21,0,1,0-13,13L91.14,60l13-13Z"/><path class="cls-2" d="M31.25,22a9.21,9.21,0,0,0-6.51,15.73h0L46.92,60l13-13L37.78,24.75A9.21,9.21,0,0,0,31.25,22Z"/><circle class="cls-3" cx="9.21" cy="53.43" r="9.21"/><circle class="cls-3" cx="97.66" cy="53.43" r="9.21"/><circle class="cls-3" cx="53.43" cy="53.43" r="9.21"/><path class="cls-4" d="M153.83,16.33H135V29.08h15.61v4H135V49.46h-4.38V12.4h23.19Z"/><path class="cls-4" d="M159.55,49.46h-4.32V12.59h4.32Z"/><path class="cls-4" d="M182.13,24.36c1.94,1.91,2.92,4.66,2.92,8.26V49.46H181V45.92q-3.09,4.17-9.21,4.16A10.81,10.81,0,0,1,164.92,48a6.72,6.72,0,0,1-2.67-5.61,6.67,6.67,0,0,1,2.69-5.56,11.36,11.36,0,0,1,7.13-2.08h8.65V32.39A7,7,0,0,0,179,27.25a6.54,6.54,0,0,0-4.85-1.76q-4.6,0-8,4.38l-2.86-2.36a12.28,12.28,0,0,1,11.12-6A10.59,10.59,0,0,1,182.13,24.36ZM178.25,44.3A6.86,6.86,0,0,0,180.72,39v-.67h-8.14q-5.9,0-5.9,3.87a3.67,3.67,0,0,0,1.63,3.2,7,7,0,0,0,4.05,1.13A8.59,8.59,0,0,0,178.25,44.3Z"/><path class="cls-4" d="M204.25,22.12v3.81h-1.63a9.09,9.09,0,0,0-6.06,2.14A7.28,7.28,0,0,0,194,34v15.5h-4.32V22.12h4v3.93a10,10,0,0,1,8.48-4.16A10.42,10.42,0,0,1,204.25,22.12Z"/><path class="cls-4" d="M229.12,37.11H207.56a9.6,9.6,0,0,0,3.17,6.51,9.91,9.91,0,0,0,6.83,2.47,11.54,11.54,0,0,0,8.36-3.7l2.53,2.92a14.46,14.46,0,0,1-10.95,4.77A14.13,14.13,0,0,1,207.17,46,13.7,13.7,0,0,1,203,35.82a14,14,0,0,1,4.05-10.17A13.3,13.3,0,0,1,217,21.5,12.25,12.25,0,0,1,225.9,25a11.89,11.89,0,0,1,3.56,8.87A14.69,14.69,0,0,1,229.12,37.11Zm-18.19-9.52a9.63,9.63,0,0,0-3.2,5.7H225a7.58,7.58,0,0,0-2.39-5.76,8.29,8.29,0,0,0-5.76-2.1A8.88,8.88,0,0,0,210.93,27.59Z"/><path class="cls-4" d="M267,11.78V49.46h-4.38V22.85L250.74,39h-1.57L237.26,22.79V49.46h-4.38V11.78h1.58L249.9,33.23l15.55-21.45Z"/><path class="cls-4" d="M296.22,37.11H274.66a9.6,9.6,0,0,0,3.17,6.51,9.91,9.91,0,0,0,6.83,2.47,11.54,11.54,0,0,0,8.36-3.7l2.53,2.92a14.49,14.49,0,0,1-10.95,4.77A14.13,14.13,0,0,1,274.27,46a13.7,13.7,0,0,1-4.16-10.16,14,14,0,0,1,4.05-10.17,13.29,13.29,0,0,1,9.93-4.15A12.22,12.22,0,0,1,293,25a11.86,11.86,0,0,1,3.57,8.87A14.69,14.69,0,0,1,296.22,37.11ZM278,27.59a9.63,9.63,0,0,0-3.2,5.7h17.29a7.54,7.54,0,0,0-2.38-5.76,8.29,8.29,0,0,0-5.76-2.1A8.86,8.86,0,0,0,278,27.59Z"/><path class="cls-4" d="M314.58,45.81v3.65a19.91,19.91,0,0,1-4.54.62,9.78,9.78,0,0,1-6.74-2.19q-2.48-2.19-2.47-6.68V26h-4.61V22.12h4.61V14.65h4.32v7.47h8.54V26h-8.54V40.93c0,1.94.5,3.3,1.49,4.07a6.87,6.87,0,0,0,4.29,1.15A22.5,22.5,0,0,0,314.58,45.81Z"/><path class="cls-4" d="M331.09,22.12v3.81h-1.63a9.1,9.1,0,0,0-6.06,2.14A7.28,7.28,0,0,0,320.87,34v15.5h-4.32V22.12h4v3.93a10,10,0,0,1,8.48-4.16A10.42,10.42,0,0,1,331.09,22.12Z"/><path class="cls-4" d="M336.82,9.45a3,3,0,0,1,.95,2.22,3,3,0,0,1-.92,2.25,3.15,3.15,0,0,1-2.28.9,3.22,3.22,0,0,1-2.33-.9,3,3,0,0,1-.92-2.25,3,3,0,0,1,.92-2.22,3.2,3.2,0,0,1,2.33-.92A3.16,3.16,0,0,1,336.82,9.45Zm-.11,40h-4.33V22.12h4.33Z"/><path class="cls-4" d="M365.34,27.45l-3.09,2.47q-3.3-4.44-8.14-4.43a9.41,9.41,0,0,0-7.1,3,10.2,10.2,0,0,0-2.84,7.3A10.28,10.28,0,0,0,347,43.12a9.41,9.41,0,0,0,7.1,3,9.76,9.76,0,0,0,8.09-4.38l3.09,2.42a12.75,12.75,0,0,1-11.23,5.95,14.19,14.19,0,0,1-14.32-14.32A14.17,14.17,0,0,1,354.06,21.5,12.79,12.79,0,0,1,365.34,27.45Z"/><path class="cls-4" d="M385.56,25.82l-2.64,2.7a9.12,9.12,0,0,0-6.74-3,5.56,5.56,0,0,0-3.29.89,2.93,2.93,0,0,0-1.26,2.53,2.64,2.64,0,0,0,1,2.16,15.21,15.21,0,0,0,3.43,1.83L378.59,34a16.42,16.42,0,0,1,5.53,3.46,6.46,6.46,0,0,1,1.72,4.63A7,7,0,0,1,383.06,48a10.93,10.93,0,0,1-6.82,2.11,12.65,12.65,0,0,1-10.67-5.33l2.75-2.87q4,4.21,7.86,4.21a6.29,6.29,0,0,0,3.73-1,3.25,3.25,0,0,0,1.49-2.83,3,3,0,0,0-1.12-2.5,15.91,15.91,0,0,0-3.65-1.88L374,36.72a16.43,16.43,0,0,1-5.11-3.15,6,6,0,0,1-1.69-4.43,6.68,6.68,0,0,1,2.64-5.62,10.47,10.47,0,0,1,6.57-2A11.2,11.2,0,0,1,385.56,25.82Z"/></g></g></svg>